# AST/ASF file generated using VICON BodyLanguage
# -----------------------------------------------
:version 1.10
:name VICON
:units
  mass 1.0
  length 0.45
  angle deg
:documentation
   .ast/.asf automatically generated from VICON data using
   VICON BodyBuilder and BodyLanguage model FoxedUp or BRILLIANT.MOD
:root
   order TX TY TZ RX RY RZ
   axis XYZ
   position 0 0 0  
   orientation 0 0 0 
:bonedata
  begin
     id 1 
     name lhipjoint
     direction 0.561145 -0.797705 0.220866 
     length 2.46425 
     axis 0 0 0  XYZ
  end
  begin
     id 2 
     name lfemur
     direction 0.34202 -0.939693 0  
     length 7.95556  
     axis 0 0 20  XYZ
    dof rx ry rz
    limits (-160.0 20.0)
           (-70.0 70.0)
           (-60.0 70.0)
  end
  begin
     id 3 
     name ltibia
     direction 0.34202 -0.939693 0   
     length 7.9832   
     axis 0 0 20   XYZ
    dof rx
    limits (-10.0 170.0)
  end
  begin
     id 4 
     name lfoot
     direction 0.0723927 -0.198897 0.977343   
     length 2.23085   
     axis -90 7.62852e-016 20   XYZ
    dof rx rz
    limits (-45.0 90.0)
           (-70.0 20.0)
  end
  begin
     id 5 
     name ltoes
     direction 1.53826e-011 -4.21988e-011 1   
     length 1.12127   
     axis -90 7.62852e-016 20   XYZ
    dof rx
    limits (-90.0 20.0)
  end
  begin
     id 6 
     name rhipjoint
     direction -0.610499 -0.763299 0.21134   
     length 2.57533  
     axis 0 0 0  XYZ 
  end
  begin
     id 7 
     name rfemur
     direction -0.34202 -0.939693 0   
     length 8.65257   
     axis 0 0 -20   XYZ
    dof rx ry rz
    limits (-160.0 20.0)
           (-70.0 70.0)
           (-70.0 60.0)
  end
  begin
     id 8 
     name rtibia
     direction -0.342021 -0.939692 0   
     length 7.37807   
     axis 0 0 -20   XYZ
    dof rx
    limits (-10.0 170.0)
 end
 begin
     id 9 
     name rfoot
     direction -0.0239304 -0.0543852 0.998233   
     length 1.87018  
     axis -90 -7.62852e-016 -20   XYZ
    dof rx rz
    limits (-45.0 90.0)
           (-20.0 70.0)
  end
  begin
     id 10 
     name rtoes
     direction -1.53584e-011 -4.2242e-011 1   
     length 0.951568   
     axis -90 -7.62852e-016 -20   XYZ
    dof rx
    limits (-90.0 20.0)
  end
  begin
     id 11 
     name lowerback
     direction 0.00322089 0.999033 0.0438587   
     length 2.07568   
     axis 0 0 0   XYZ
    dof rx ry rz
    limits (-20.0 45.0)
           (-30.0 30.0)
           (-30.0 30.0)
  end
  begin
     id 12 
     name upperback
     direction -0.00321932 0.999732 -0.0229403   
     length 2.06253   
     axis 0 0 0   XYZ
    dof rx ry rz
    limits (-20.0 45.0)
           (-30.0 30.0)
           (-30.0 30.0)
  end
  begin
     id 13 
     name thorax
     direction -0.00537537 0.998955 -0.0453918   
     length 2.06975   
     axis 0 0 0   XYZ
    dof rx ry rz
    limits (-20.0 45.0)
           (-30.0 30.0)
           (-30.0 30.0)
  end
  begin
     id 14 
     name lowerneck
     direction -0.00013604 0.994111 0.108363   
     length 1.50836   
     axis 0 0 0   XYZ
    dof rx ry rz
    limits (-20.0 45.0)
           (-30.0 30.0)
           (-30.0 30.0)
  end
  begin
     id 15 
     name upperneck
     direction 0.0397262 0.983859 -0.174482   
     length 1.53037   
     axis 0 0 0   XYZ
    dof rx ry rz
    limits (-20.0 45.0)
           (-30.0 30.0)
           (-30.0 30.0)
  end
  begin
     id 16
     name head
     direction 0.0109991 0.997082 -0.0755378  
     length 1.56928  
     axis 0 0 0   XYZ
    dof rx ry rz
    limits (-20.0 45.0)
           (-30.0 30.0)
           (-30.0 30.0)
  end
  begin
     id 17 
     name lclavicle
     direction 0.964749 0.254 -0.068874  
     length 3.26503  
     axis 0 0 0   XYZ
    dof ry rz
    limits (-20.0 10.0)
           (0.0 20.0)
  end
  begin
     id 18 
     name lhumerus
     direction 1 -4.48941e-011 -2.05079e-027   
     length 5.68236   
     axis 180 -30 -90   XYZ
    dof rx ry rz
    limits (-60.0 90.0)
           (-90.0 90.0)
           (-90.0 90.0)
  end
  begin
     id 19
     name lradius
     direction 1 -4.48956e-011 6.2882e-027   
     length 3.17112   
     axis 180 -30 -90   XYZ
    dof rx
    limits (-10.0 170.0)
  end
  begin
     id 20
     name lwrist
     direction 1 -4.49014e-011 1.73219e-026   
     length 1.58556   
     axis -1.04724e-014 90 90   XYZ
    dof ry
    limits (-180.0 0.0)
 end
  begin
     id 21 
     name lhand
     direction 1 -4.49312e-011 3.46438e-026   
     length 0.632691   
     axis -2.21057e-014 90 90   XYZ
    dof rx rz
    limits (-90.0 90.0)
           (-45.0 45.0)
  end
  begin
     id 22 
     name lfingers
     direction 1 -4.48894e-011 6.92876e-026   
     length 0.510091   
     axis -4.42114e-014 90 90   XYZ
    dof rx
    limits (0.0 90.0)
  end
  begin
     id 23
     name lthumb
     direction 0.707107 -6.34705e-011 0.707107   
     length 0.732392   
     axis -90 45 2.85299e-015   XYZ
    dof rx rz
    limits (-45.0 45.0)
           (-45.0 45.0)
  end
  begin
     id 24 
     name rclavicle
     direction -0.954374 0.280496 -0.102435   
     length 3.25419  
     axis 0 0 0   XYZ 
    dof ry rz
    limits (-10.0 20.0)
           (-20.0 0.0)
  end
  begin
     id 25 
     name rhumerus
     direction -1 -4.48994e-011 -1.07204e-017  
     length 5.8712   
     axis 180 30 90   XYZ
    dof rx ry rz
    limits (-90.0 60.0)
           (-90.0 90.0)
           (-90.0 90.0)
  end
  begin
     id 26 
     name rradius
     direction -1 -4.48972e-011 5.89292e-027   
     length 3.37589   
     axis 180 30 90   XYZ
    dof rx
    limits (-10.0 170.0)
  end
  begin
     id 27 
     name rwrist
     direction -1 -4.48942e-011 1.73219e-026   
     length 1.68794   
     axis -1.04724e-014 -90 -90   XYZ
    dof ry
    limits (-180.0 0.0)
  end
  begin
     id 28
     name rhand
     direction -1 -4.48514e-011 3.46438e-026   
     length 0.603257   
     axis -2.21057e-014 -90 -90   XYZ
    dof rx rz
    limits (-90.0 90.0)
           (-45.0 45.0)
  end
  begin
     id 29
     name rfingers
     direction -1 -4.50028e-011 6.92876e-026   
     length 0.486362   
     axis -4.42114e-014 -90 -90   XYZ
    dof rx
    limits (0.0 90.0)
  end
  begin
     id 30
     name rthumb
     direction -0.707107 -6.34926e-011 0.707107   
     length 0.698321   
     axis -90 -45 -2.85299e-015   XYZ
    dof rx rz
    limits (-45.0 45.0)
           (-45.0 45.0)
  end
:hierarchy
  begin
    root lhipjoint rhipjoint lowerback
    lhipjoint lfemur
    lfemur ltibia
    ltibia lfoot
    lfoot ltoes
    rhipjoint rfemur
    rfemur rtibia
    rtibia rfoot
    rfoot rtoes
    lowerback upperback
    upperback thorax
    thorax lowerneck lclavicle rclavicle
    lowerneck upperneck
    upperneck head
    lclavicle lhumerus
    lhumerus lradius
    lradius lwrist
    lwrist lhand lthumb
    lhand lfingers
    rclavicle rhumerus
    rhumerus rradius
    rradius rwrist
    rwrist rhand rthumb
    rhand rfingers
  end

#!OML:ASF I:\Segmentation\Patient Classification 1\Patient 1\Session 1\Patient1.ASF
:FULLY-SPECIFIED
:DEGREES
2248
root 20.4131 15.7919 -0.461441 -580.267 -91.0327 209.43
lowerback 13.5825 0.749059 -0.938031
upperback 10.8793 0.198832 1.15086
thorax 3.86921 -0.290059 1.69262
lowerneck -13.8227 -5.03017 -2.37259
upperneck 3.39579 -6.83497 6.37198
head 3.54288 -3.1363 1.84001
rclavicle 3.8763e-015 1.11319e-014
rhumerus 10.973 26.6248 -93.4235
rradius 103.867
rwrist -49.2161
rhand -35.1174 1.41755
rfingers 7.12502
rthumb -8.25804 -28.401
lclavicle 3.8763e-015 1.11319e-014
lhumerus 22.4571 -30.812 75.1813
lradius 98.7433
lwrist 6.02954
lhand -18.9864 28.3459
lfingers 7.12502
lthumb 7.31827 58.1993
rfemur -38.2814 -7.00904 17.2751
rtibia 60.6654
rfoot -4.05217 2.75361
rtoes 46.4846
lfemur -39.8165 11.0103 -18.8924
ltibia 63.6947
lfoot -14.6332 5.16789
ltoes 0.66635
2249
root 20.4117 15.7921 -0.461754 -580.238 -91.0532 209.398
lowerback 13.5646 0.778884 -0.950124
upperback 10.8749 0.238823 1.14283
thorax 3.87238 -0.269719 1.68705
lowerneck -13.7818 -5.0585 -2.44197
upperneck 3.37453 -6.87284 6.52018
head 3.53997 -3.15034 1.89409
rclavicle 1.39149e-015 7.95139e-016
rhumerus 10.7855 26.3501 -93.4225
rradius 103.79
rwrist -48.9566
rhand -34.7748 1.72315
rfingers 7.12502
rthumb -7.92747 -28.1082
lclavicle 1.39149e-015 7.95139e-016
lhumerus 22.4162 -30.7182 75.1543
lradius 98.8045
lwrist 5.9695
lhand -18.3449 28.079
lfingers 7.12502
lthumb 7.93749 57.9099
rfemur -38.2741 -7.03689 17.2606
rtibia 60.6735
rfoot -4.04867 2.7405
rtoes 46.4209
lfemur -39.8118 10.9921 -18.9075
ltibia 63.6924
lfoot -14.6665 5.17412
ltoes 0.693717
2250
root 20.4107 15.7922 -0.46182 -580.339 -91.0788 209.475
lowerback 13.5655 0.813865 -0.969428
upperback 10.882 0.282888 1.15243
thorax 3.87783 -0.249211 1.70361
lowerneck -13.7165 -5.0988 -2.55055
upperneck 3.30974 -6.91676 6.6549
head 3.52099 -3.17002 1.95084
rclavicle 2.98177e-015 5.96354e-015
rhumerus 10.6383 26.0907 -93.3056
rradius 103.7
rwrist -48.8667
rhand -34.3633 1.99697
rfingers 7.12502
rthumb -7.53023 -27.849
lclavicle 2.98177e-015 5.96354e-015
lhumerus 22.4398 -30.6577 75.0753
lradius 98.8298
lwrist 5.96184
lhand -18.053 27.8876
lfingers 7.12502
lthumb 8.21923 57.7078
rfemur -38.2417 -7.06508 17.2355
rtibia 60.6815
rfoot -4.04798 2.73479
rtoes 46.3932
lfemur -39.7784 10.9754 -18.9258
ltibia 63.6829
lfoot -14.6915 5.17827
ltoes 0.701545
2251
root 20.4099 15.7926 -0.461892 -580.624 -91.108 209.712
lowerback 13.5784 0.851608 -0.998363
upperback 10.9076 0.327072 1.17715
thorax 3.89703 -0.230972 1.74138
lowerneck -13.663 -5.14268 -2.67897
upperneck 3.23096 -6.95867 6.75986
head 3.49902 -3.19049 2.00177
rclavicle 1.39149e-015 3.57812e-015
rhumerus 10.5176 25.8306 -93.1008
rradius 103.586
rwrist -48.821
rhand -33.8191 2.2543
rfingers 7.12502
rthumb -7.00491 -27.6098
lclavicle 1.39149e-015 3.57812e-015
lhumerus 22.4938 -30.5774 74.9708
lradius 98.853
lwrist 5.97932
lhand -17.9332 27.7652
lfingers 7.12502
lthumb 8.3348 57.5808
rfemur -38.1837 -7.09081 17.2017
rtibia 60.6885
rfoot -4.0453 2.73698
rtoes 46.3956
lfemur -39.7156 10.9608 -18.9458
ltibia 63.6665
lfoot -14.7009 5.1829
ltoes 0.670118
2252
root 20.4094 15.793 -0.461932 -580.794 -91.1373 209.828
lowerback 13.5888 0.885568 -1.01795
upperback 10.9507 0.365322 1.20247
thorax 3.93673 -0.216219 1.7751
lowerneck -13.6532 -5.18095 -2.79959
upperneck 3.1698 -6.99269 6.83789
head 3.48766 -3.20698 2.04278
rclavicle -2.98177e-015 -1.11319e-014
rhumerus 10.3871 25.5466 -92.8613
rradius 103.448
rwrist -48.7397
rhand -33.1509 2.52578
rfingers 7.12502
rthumb -6.35985 -27.3587
lclavicle -2.98177e-015 -1.11319e-014
lhumerus 22.5544 -30.4502 74.8484
lradius 98.9061
lwrist 5.99329
lhand -17.8339 27.7077
lfingers 7.12502
lthumb 8.43061 57.5194
rfemur -38.1162 -7.11393 17.169
rtibia 60.694
rfoot -4.04333 2.74343
rtoes 46.4049
lfemur -39.6418 10.9444 -18.9625
ltibia 63.6475
lfoot -14.6947 5.18925
ltoes 0.635987
2253
root 20.4088 15.7933 -0.461781 -580.6 -91.1633 209.589
lowerback 13.579 0.909537 -1.01275
upperback 11.0023 0.392549 1.21708
thorax 3.99701 -0.205517 1.7848
lowerneck -13.6934 -5.20716 -2.89554
upperneck 3.14137 -7.01426 6.89542
head 3.49198 -3.21627 2.07314
rclavicle -9.93923e-016 -3.18055e-015
rhumerus 10.2169 25.235 -92.6234
rradius 103.295
rwrist -48.6365
rhand -32.4838 2.71193
rfingers 7.12502
rthumb -5.71585 -27.191
lclavicle -9.93923e-016 -3.18055e-015
lhumerus 22.6022 -30.2659 74.716
lradius 99.0119
lwrist 6.00627
lhand -17.6751 27.7077
lfingers 7.12502
lthumb 8.58388 57.5133
rfemur -38.0615 -7.13583 17.1459
rtibia 60.6982
rfoot -4.0489 2.74995
rtoes 46.4038
lfemur -39.5819 10.9241 -18.9729
ltibia 63.6304
lfoot -14.6771 5.19546
ltoes 0.627511
2254
root 20.408 15.7935 -0.461501 -580.065 -91.1863 209.037
lowerback 13.535 0.921246 -0.990433
upperback 11.0502 0.406639 1.22123
thorax 4.07228 -0.199608 1.7753
lowerneck -13.758 -5.21783 -2.96566
upperneck 3.13334 -7.01861 6.93368
head 3.50389 -3.21666 2.09417
rclavicle 5.76476e-015 1.98785e-015
rhumerus 10.0282 24.9149 -92.3916
rradius 103.124
rwrist -48.5695
rhand -32.0159 2.67681
rfingers 7.12502
rthumb -5.26407 -27.2378
lclavicle 5.76476e-015 1.98785e-015
lhumerus 22.6124 -30.0185 74.5917
lradius 99.1833
lwrist 6.04095
lhand -17.4859 27.7559
lfingers 7.12502
lthumb 8.76643 57.5538
rfemur -38.0369 -7.15883 17.1331
rtibia 60.7004
rfoot -4.06148 2.75469
rtoes 46.3954
lfemur -39.5556 10.9034 -18.9808
ltibia 63.617
lfoot -14.6496 5.20064
ltoes 0.617953
2255
root 20.4069 15.7938 -0.461713 -579.364 -91.2057 208.34
lowerback 13.4618 0.925318 -0.970408
upperback 11.0899 0.412071 1.22143
thorax 4.15451 -0.197424 1.76388
lowerneck -13.8079 -5.21596 -3.01566
upperneck 3.11495 -7.00792 6.95482
head 3.50818 -3.21067 2.10845
rclavicle 3.77691e-015 0
rhumerus 9.86693 24.594 -92.1626
rradius 102.921
rwrist -48.5641
rhand -31.8663 2.39297
rfingers 7.12502
rthumb -5.11965 -27.5252
lclavicle 3.77691e-015 0
lhumerus 22.5759 -29.7102 74.4894
lradius 99.4135
lwrist 6.10795
lhand -17.3618 27.8465
lfingers 7.12502
lthumb 8.88627 57.6393
rfemur -38.0322 -7.17879 17.1287
rtibia 60.697
rfoot -4.07155 2.76207
rtoes 46.4009
lfemur -39.5539 10.8941 -18.9854
ltibia 63.6031
lfoot -14.6112 5.19796
ltoes 0.580762
2256
root 20.4053 15.7954 -0.463782 -578.868 -91.2135 207.843
lowerback 13.3866 0.934918 -0.977741
upperback 11.1269 0.422432 1.2262
thorax 4.23456 -0.19451 1.77221
lowerneck -13.8207 -5.21031 -3.05446
upperneck 3.06795 -6.99227 6.9653
head 3.49681 -3.20395 2.11927
rclavicle 2.08724e-015 2.78299e-015
rhumerus 9.75454 24.2533 -91.9416
rradius 102.678
rwrist -48.5936
rhand -32.0303 1.91795
rfingers 7.12502
rthumb -5.27799 -27.9963
lclavicle 2.08724e-015 2.78299e-015
lhumerus 22.5045 -29.3548 74.412
lradius 99.6819
lwrist 6.20361
lhand -17.4045 27.9633
lfingers 7.12502
lthumb 8.84498 57.758
rfemur -38.0075 -7.17663 17.1332
rtibia 60.6828
rfoot -4.07366 2.78559
rtoes 46.4367
lfemur -39.5336 10.9187 -18.976
ltibia 63.5814
lfoot -14.5639 5.17556
ltoes 0.499539
2257
root 20.4034 15.799 -0.468672 -578.967 -91.2013 207.908
lowerback 13.3425 0.961663 -1.02775
upperback 11.1676 0.450081 1.23848
thorax 4.30108 -0.18633 1.8107
lowerneck -13.8051 -5.20763 -3.08346
upperneck 3.00315 -6.98158 6.97296
head 3.47533 -3.20062 2.12812
rclavicle 5.06901e-015 3.18055e-015
rhumerus 9.68984 23.8635 -91.7476
rradius 102.392
rwrist -48.6148
rhand -32.4473 1.38924
rfingers 7.12502
rthumb -5.68065 -28.5146
lclavicle 5.06901e-015 3.18055e-015
lhumerus 22.4143 -28.9726 74.3556
lradius 99.9727
lwrist 6.32349
lhand -17.6582 28.0904
lfingers 7.12502
lthumb 8.6002 57.8952
rfemur -37.929 -7.13373 17.1467
rtibia 60.6568
rfoot -4.07412 2.8368
rtoes 46.4928
lfemur -39.4567 10.9908 -18.944
ltibia 63.5495
lfoot -14.5121 5.12895
ltoes 0.374761
